<?xml version="1.0" encoding="UTF-8" standalone="no"?>
<!-- Created with Inkscape (http://www.inkscape.org/) -->

<svg
   width="210mm"
   height="297mm"
   viewBox="0 0 210 297"
   version="1.1"
   id="svg5"
   xml:space="preserve"
   inkscape:version="1.2 (dc2aeda, 2022-05-15)"
   sodipodi:docname="raw.svg"
   xmlns:inkscape="http://www.inkscape.org/namespaces/inkscape"
   xmlns:sodipodi="http://sodipodi.sourceforge.net/DTD/sodipodi-0.dtd"
   xmlns="http://www.w3.org/2000/svg"
   xmlns:svg="http://www.w3.org/2000/svg"><sodipodi:namedview
     id="namedview7"
     pagecolor="#ffffff"
     bordercolor="#000000"
     borderopacity="0.25"
     inkscape:showpageshadow="2"
     inkscape:pageopacity="0.0"
     inkscape:pagecheckerboard="0"
     inkscape:deskcolor="#d1d1d1"
     inkscape:document-units="mm"
     showgrid="false"
     inkscape:zoom="0.6965874"
     inkscape:cx="226.10228"
     inkscape:cy="614.42397"
     inkscape:window-width="1792"
     inkscape:window-height="1120"
     inkscape:window-x="0"
     inkscape:window-y="0"
     inkscape:window-maximized="0"
     inkscape:current-layer="layer1" /><defs
     id="defs2"><inkscape:path-effect
       effect="spiro"
       id="path-effect41433"
       is_visible="true"
       lpeversion="1" /><marker
       style="overflow:visible"
       id="Arrow2"
       refX="0"
       refY="0"
       orient="auto-start-reverse"
       inkscape:stockid="Arrow2"
       markerWidth="3.7"
       markerHeight="2.6909091"
       viewBox="0 0 7.7 5.6"
       inkscape:isstock="true"
       inkscape:collect="always"
       preserveAspectRatio="xMidYMid"><path
         transform="scale(0.7)"
         d="M -2,-4 9,0 -2,4 c 2,-2.33 2,-5.66 0,-8 z"
         style="fill:context-stroke;fill-rule:evenodd;stroke:none"
         id="arrow2L" /></marker><inkscape:path-effect
       effect="spiro"
       id="path-effect32647"
       is_visible="true"
       lpeversion="1" /><inkscape:path-effect
       effect="spiro"
       id="path-effect31616"
       is_visible="true"
       lpeversion="1" /><inkscape:path-effect
       effect="bspline"
       id="path-effect31504"
       is_visible="true"
       lpeversion="1"
       weight="33.333333"
       steps="2"
       helper_size="0"
       apply_no_weight="true"
       apply_with_weight="true"
       only_selected="false" /><inkscape:path-effect
       effect="bspline"
       id="path-effect31411"
       is_visible="true"
       lpeversion="1"
       weight="33.333333"
       steps="2"
       helper_size="0"
       apply_no_weight="true"
       apply_with_weight="true"
       only_selected="false" /><inkscape:path-effect
       effect="bspline"
       id="path-effect3365"
       is_visible="true"
       lpeversion="1"
       weight="33.333333"
       steps="2"
       helper_size="0"
       apply_no_weight="true"
       apply_with_weight="true"
       only_selected="false" /><inkscape:path-effect
       effect="bspline"
       id="path-effect3361"
       is_visible="true"
       lpeversion="1"
       weight="33.333333"
       steps="2"
       helper_size="0"
       apply_no_weight="true"
       apply_with_weight="true"
       only_selected="false" /><inkscape:path-effect
       effect="bspline"
       id="path-effect1690"
       is_visible="true"
       lpeversion="1"
       weight="33.333333"
       steps="2"
       helper_size="0"
       apply_no_weight="true"
       apply_with_weight="true"
       only_selected="false" /><inkscape:path-effect
       effect="bspline"
       id="path-effect31411-9"
       is_visible="true"
       lpeversion="1"
       weight="33.333333"
       steps="2"
       helper_size="0"
       apply_no_weight="true"
       apply_with_weight="true"
       only_selected="false" /><inkscape:path-effect
       effect="spiro"
       id="path-effect32647-6"
       is_visible="true"
       lpeversion="1" /><marker
       style="overflow:visible"
       id="Arrow2_F-2e2e2e_S-ecc8b2"
       refX="0"
       refY="0"
       orient="auto-start-reverse"
       inkscape:stockid="Arrow2"
       markerWidth="3.7"
       markerHeight="2.6909091"
       viewBox="0 0 7.7 5.6"
       inkscape:isstock="true"
       inkscape:collect="always"
       preserveAspectRatio="xMidYMid"><path
         transform="scale(0.7)"
         d="M -2,-4 9,0 -2,4 c 2,-2.33 2,-5.66 0,-8 z"
         style="fill:#ecc8b2;fill-rule:evenodd;stroke:none"
         id="path34067" /></marker><inkscape:path-effect
       effect="spiro"
       id="path-effect32647-3"
       is_visible="true"
       lpeversion="1" /></defs><g
     inkscape:label="Layer 1"
     inkscape:groupmode="layer"
     id="layer1"><g
       id="g46097"
       transform="matrix(0.22666588,0,0,0.22666588,-0.78926675,-7.5074305)"
       inkscape:export-filename="raw.svg"
       inkscape:export-xdpi="96"
       inkscape:export-ydpi="96"><g
         id="g46083"><path
           sodipodi:type="star"
           style="fill:#2e2e2e;fill-opacity:1;stroke:#1a0b04;stroke-width:2.63;stroke-linecap:round;stroke-linejoin:round;stroke-opacity:1"
           id="path184"
           inkscape:flatsided="true"
           sodipodi:sides="6"
           sodipodi:cx="92.451683"
           sodipodi:cy="144.04074"
           sodipodi:r1="110.74449"
           sodipodi:r2="95.907539"
           sodipodi:arg1="0.52143444"
           sodipodi:arg2="1.0450332"
           inkscape:rounded="0"
           inkscape:randomized="0"
           d="M 188.47885,199.20528 92.691371,254.78497 -3.3357913,199.62043 -3.5754794,88.876201 92.211995,33.296509 188.23916,88.461049 Z"
           inkscape:transform-center-x="1.1647456e-06"
           inkscape:transform-center-y="-1.8146865e-06"
           transform="translate(11.237221,1.5323484)" /></g><text
         xml:space="preserve"
         style="font-style:normal;font-variant:normal;font-weight:normal;font-stretch:normal;font-size:40.2033px;font-family:Sans;-inkscape-font-specification:'Sans, Normal';font-variant-ligatures:normal;font-variant-caps:normal;font-variant-numeric:normal;font-variant-east-asian:normal;fill:#ecc8b2;fill-opacity:1;stroke:#ecc8b2;stroke-width:0;stroke-linecap:round;stroke-linejoin:round;stroke-dasharray:none;stroke-opacity:1"
         x="38.933491"
         y="117.61706"
         id="text4203"><tspan
           sodipodi:role="line"
           id="tspan4201"
           style="font-style:normal;font-variant:normal;font-weight:normal;font-stretch:normal;font-size:40.2033px;font-family:'Arial Rounded MT Bold';-inkscape-font-specification:'Arial Rounded MT Bold, Normal';font-variant-ligatures:normal;font-variant-caps:normal;font-variant-numeric:normal;font-variant-east-asian:normal;fill:#ecc8b2;fill-opacity:1;stroke:#ecc8b2;stroke-width:0;stroke-dasharray:none;stroke-opacity:1"
           x="38.933491"
           y="117.61706">cubble</tspan></text><g
         style="fill:#ecc8b2;fill-opacity:1;stroke-width:0.581568;stroke-dasharray:none"
         id="g25099"
         transform="matrix(3.1195795,0,0,3.1195795,139.52672,148.04138)"><path
           fill-rule="evenodd"
           clip-rule="evenodd"
           d="M 4.5,1 C 4.77614,1 5,1.22386 5,1.5 V 2 h 5 V 1.5 C 10,1.22386 10.2239,1 10.5,1 10.7761,1 11,1.22386 11,1.5 V 2 h 1.5 C 13.3284,2 14,2.67157 14,3.5 v 9 C 14,13.3284 13.3284,14 12.5,14 H 2.5 C 1.67157,14 1,13.3284 1,12.5 v -9 C 1,2.67157 1.67157,2 2.5,2 H 4 V 1.5 C 4,1.22386 4.22386,1 4.5,1 Z M 10,3 V 3.5 C 10,3.77614 10.2239,4 10.5,4 10.7761,4 11,3.77614 11,3.5 V 3 h 1.5 C 12.7761,3 13,3.22386 13,3.5 V 5 H 2 V 3.5 C 2,3.22386 2.22386,3 2.5,3 H 4 V 3.5 C 4,3.77614 4.22386,4 4.5,4 4.77614,4 5,3.77614 5,3.5 V 3 Z M 2,6 v 6.5 C 2,12.7761 2.22386,13 2.5,13 h 10 C 12.7761,13 13,12.7761 13,12.5 V 6 Z M 7,7.5 C 7,7.22386 7.22386,7 7.5,7 7.77614,7 8,7.22386 8,7.5 8,7.77614 7.77614,8 7.5,8 7.22386,8 7,7.77614 7,7.5 Z M 9.5,7 C 9.22386,7 9,7.22386 9,7.5 9,7.77614 9.22386,8 9.5,8 9.77614,8 10,7.77614 10,7.5 10,7.22386 9.77614,7 9.5,7 Z M 11,7.5 C 11,7.22386 11.2239,7 11.5,7 11.7761,7 12,7.22386 12,7.5 12,7.77614 11.7761,8 11.5,8 11.2239,8 11,7.77614 11,7.5 Z M 11.5,9 C 11.2239,9 11,9.22386 11,9.5 11,9.77614 11.2239,10 11.5,10 11.7761,10 12,9.77614 12,9.5 12,9.22386 11.7761,9 11.5,9 Z M 9,9.5 C 9,9.22386 9.22386,9 9.5,9 9.77614,9 10,9.22386 10,9.5 10,9.77614 9.77614,10 9.5,10 9.22386,10 9,9.77614 9,9.5 Z M 7.5,9 C 7.22386,9 7,9.22386 7,9.5 7,9.77614 7.22386,10 7.5,10 7.77614,10 8,9.77614 8,9.5 8,9.22386 7.77614,9 7.5,9 Z M 5,9.5 C 5,9.22386 5.22386,9 5.5,9 5.77614,9 6,9.22386 6,9.5 6,9.77614 5.77614,10 5.5,10 5.22386,10 5,9.77614 5,9.5 Z M 3.5,9 C 3.22386,9 3,9.22386 3,9.5 3,9.77614 3.22386,10 3.5,10 3.77614,10 4,9.77614 4,9.5 4,9.22386 3.77614,9 3.5,9 Z M 3,11.5 C 3,11.2239 3.22386,11 3.5,11 3.77614,11 4,11.2239 4,11.5 4,11.7761 3.77614,12 3.5,12 3.22386,12 3,11.7761 3,11.5 Z M 5.5,11 C 5.22386,11 5,11.2239 5,11.5 5,11.7761 5.22386,12 5.5,12 5.77614,12 6,11.7761 6,11.5 6,11.2239 5.77614,11 5.5,11 Z M 7,11.5 C 7,11.2239 7.22386,11 7.5,11 7.77614,11 8,11.2239 8,11.5 8,11.7761 7.77614,12 7.5,12 7.22386,12 7,11.7761 7,11.5 Z M 9.5,11 C 9.22386,11 9,11.2239 9,11.5 9,11.7761 9.22386,12 9.5,12 9.77614,12 10,11.7761 10,11.5 10,11.2239 9.77614,11 9.5,11 Z"
           fill="#000000"
           id="path25090"
           style="fill:#ecc8b2;fill-opacity:1;stroke-width:0.581568;stroke-dasharray:none" /></g><g
         style="fill:#ecc7b1;fill-opacity:1;stroke-width:11.9563;stroke-dasharray:none"
         id="g30977"
         transform="matrix(0.08363774,0,0,0.08363774,26.799126,148.96028)"><g
           color="#ff0000"
           id="g30967"
           style="fill:#ecc7b1;fill-opacity:1;stroke-width:11.9563;stroke-dasharray:none">
			<path
   d="m 256.007,213.341 c 35.355,0 64,-28.645 64,-64 0,-35.355 -28.645,-64 -64,-64 -35.355,0 -64,28.645 -64,64 0,35.355 28.645,64 64,64 z m 0,-85.333 c 11.791,0 21.333,9.542 21.333,21.333 0,11.791 -9.542,21.333 -21.333,21.333 -11.791,0 -21.333,-9.542 -21.333,-21.333 0,-11.791 9.542,-21.333 21.333,-21.333 z"
   id="path30963"
   style="fill:#ecc7b1;fill-opacity:1;stroke-width:11.9563;stroke-dasharray:none" />
			<path
   d="M 511.593,486.491 468.926,273.158 c -1.994,-9.972 -10.75,-17.15 -20.919,-17.15 H 365.08 c 1.362,-2.146 2.744,-4.321 4.162,-6.55 l 1.036,-1.629 c 5.852,-9.199 8.681,-13.651 12.042,-18.961 14.956,-23.623 23.02,-50.992 23.02,-79.527 C 405.34,60.309 327.99,-9.18 238.554,0.998 172.006,8.589 117.366,61.833 108.156,128.123 c -5.511,39.683 4.604,78.394 27.526,109.517 4.485,6.08 8.817,12.17 13.068,18.368 H 64.007 c -10.169,0 -18.925,7.178 -20.919,17.15 L 0.422,486.491 c -2.64,13.201 7.457,25.517 20.919,25.517 h 469.333 c 13.462,0 23.559,-12.316 20.919,-25.517 z M 150.418,133.993 c 6.528,-46.989 45.76,-85.218 92.967,-90.603 64.055,-7.29 119.289,42.33 119.289,105.951 0,20.39 -5.735,39.855 -16.403,56.706 -3.34,5.276 -6.155,9.708 -11.991,18.88 l -1.036,1.629 C 293.096,289.665 275.06,319.678 255.964,357.708 222.768,292.345 199.693,252.539 170.029,212.325 153.652,190.089 146.453,162.54 150.418,133.993 Z M 47.363,469.341 81.496,298.674 h 93.854 c 15.711,26.598 31.008,55.273 49.787,92.647 1.027,2.044 2.059,4.103 3.107,6.198 l 8.681,17.362 c 7.863,15.726 30.305,15.723 38.164,-0.004 l 18.389,-36.8 c 12.281,-24.528 26.224,-48.997 44.921,-79.403 h 92.117 l 34.133,170.667 H 47.363 Z"
   id="path30965"
   style="fill:#ecc7b1;fill-opacity:1;stroke-width:11.9563;stroke-dasharray:none" />
		</g></g><path
         style="opacity:1;fill:#2e2e2e;fill-opacity:1;stroke:#ecc8b2;stroke-width:2.5609;stroke-linecap:round;stroke-linejoin:round;stroke-dasharray:none;stroke-opacity:1;marker-end:url(#Arrow2_F-2e2e2e_S-ecc8b2)"
         d="m 74.19419,162.77732 c 5.509188,-5.92331 12.830469,-10.13798 20.719324,-11.92758 7.888856,-1.7896 16.312106,-1.1466 23.837916,1.81969 5.34515,2.10679 10.233,5.36535 14.23355,9.48904"
         id="path32645"
         inkscape:path-effect="#path-effect32647"
         inkscape:original-d="m 74.19419,162.77732 c -0.417309,-16.32584 35.60732,-15.93575 44.55724,-10.10789 7.11846,4.63528 9.99944,3.84356 14.23355,9.48904"
         sodipodi:nodetypes="csc" /><path
         style="fill:#2e2e2e;fill-opacity:1;stroke:#ecc8b2;stroke-width:2.5609;stroke-linecap:round;stroke-linejoin:round;stroke-dasharray:none;stroke-opacity:1;marker-end:url(#Arrow2_F-2e2e2e_S-ecc8b2)"
         d="m 136.94877,184.66837 c -5.40194,6.02128 -12.64636,10.36673 -20.50181,12.2977 -7.85544,1.93097 -16.28888,1.43933 -23.866743,-1.39135 -5.38212,-2.01047 -10.32769,-5.18074 -14.401643,-9.23193"
         id="path32645-6"
         inkscape:path-effect="#path-effect32647-3"
         inkscape:original-d="m 136.94877,184.66837 c 0.71039,16.31572 -35.31543,16.57256 -44.368553,10.90635 -7.200545,-4.50672 -10.066844,-3.66339 -14.401643,-9.23193"
         sodipodi:nodetypes="csc" /></g></g></svg>
